<svg width="66" height="78" viewBox="0 0 66 78" fill="none" xmlns="http://www.w3.org/2000/svg">
<path d="M19.536 6.29042V18.9772L8.976 13.0683L1.056 18.9772L32.209 37.5738L42.2813 31.1872L28.7832 24.0542L51.744 25.6237L62.8186 18.9831L29.0008 16.5828L28.512 16.5475V0L19.536 6.29042Z" fill="#12669E"/>
<path d="M0 62.4932L29.04 78V69.1122L9.78141 59.2111L9.504 59.0689V30.4153L0 24.5398V62.4932Z" fill="#2FB3E0"/>
<path d="M33.792 43.4728V51.3278L59.136 35.6679V46.2144V46.7166C55.5187 48.9284 51.3029 51.5403 46.7857 54.241L46.4805 54.4234C41.9603 57.1259 37.4438 59.8274 33.792 62.0577V77.9922L43.824 72.5394V64.5118L44.0808 64.3657C48.0307 62.1115 51.5864 59.982 55.1468 57.8498L55.1585 57.8428C58.645 55.7548 62.1368 53.6642 66 51.4553V23.5354L33.792 43.4728Z" fill="#1E8DC9"/>
</svg>
